/* XPM */
static char * hide_active_xpm[] = {
"24 24 3 1",
" 	c None",
".	c #03a9f4 s active_mid_1",
"+	c #FDFDFD",
"........................",
"........................",
"........................",
"........................",
"........................",
"........................",
"........................",
"........................",
"........................",
"........................",
"........................",
"........................",
"........................",
"........................",
"........................",
"......++++++++++++......",
"......++++++++++++......",
"........................",
"........................",
"........................",
"........................",
"........................",
"........................",
"........................"};
